<mxfile host="65bd71144e">
    <diagram id="aL6eNNSR6VhDVwOmm95V" name="Page-1">
        <mxGraphModel dx="3430" dy="1028" grid="1" gridSize="10" guides="1" tooltips="1" connect="1" arrows="1" fold="1" page="1" pageScale="1" pageWidth="850" pageHeight="1100" background="#F4F1DE" math="0" shadow="0">
            <root>
                <mxCell id="0"/>
                <mxCell id="1" parent="0"/>
                <mxCell id="4" value="" style="edgeStyle=orthogonalEdgeStyle;curved=0;rounded=1;sketch=0;orthogonalLoop=1;jettySize=auto;html=1;fontColor=#393C56;strokeColor=#E07A5F;fillColor=#F2CC8F;labelBackgroundColor=#F4F1DE;" parent="1" source="2" target="3" edge="1">
                    <mxGeometry relative="1" as="geometry"/>
                </mxCell>
                <mxCell id="2" value="def _init_&lt;br&gt;(self, data):" style="strokeWidth=2;html=1;shape=mxgraph.flowchart.terminator;whiteSpace=wrap;rounded=0;sketch=0;fontColor=#393C56;fillColor=#F2CC8F;strokeColor=#E07A5F;" parent="1" vertex="1">
                    <mxGeometry x="325" y="40" width="100" height="60" as="geometry"/>
                </mxCell>
                <mxCell id="6" value="" style="edgeStyle=orthogonalEdgeStyle;curved=0;rounded=1;sketch=0;orthogonalLoop=1;jettySize=auto;html=1;fontColor=#393C56;strokeColor=#E07A5F;fillColor=#F2CC8F;labelBackgroundColor=#F4F1DE;" parent="1" source="3" target="5" edge="1">
                    <mxGeometry relative="1" as="geometry"/>
                </mxCell>
                <mxCell id="3" value="self.tile_list=[ ]" style="rounded=0;whiteSpace=wrap;html=1;sketch=0;fontColor=#393C56;strokeColor=#E07A5F;fillColor=#F2CC8F;" parent="1" vertex="1">
                    <mxGeometry x="315" y="150" width="120" height="60" as="geometry"/>
                </mxCell>
                <mxCell id="8" value="" style="edgeStyle=orthogonalEdgeStyle;curved=0;rounded=1;sketch=0;orthogonalLoop=1;jettySize=auto;html=1;fontColor=#393C56;strokeColor=#E07A5F;fillColor=#F2CC8F;labelBackgroundColor=#F4F1DE;" parent="1" source="5" target="7" edge="1">
                    <mxGeometry relative="1" as="geometry"/>
                </mxCell>
                <mxCell id="5" value="row_count = 0" style="rounded=0;whiteSpace=wrap;html=1;sketch=0;fontColor=#393C56;strokeColor=#E07A5F;fillColor=#F2CC8F;" parent="1" vertex="1">
                    <mxGeometry x="315" y="260" width="120" height="60" as="geometry"/>
                </mxCell>
                <mxCell id="10" value="" style="edgeStyle=orthogonalEdgeStyle;curved=0;rounded=1;sketch=0;orthogonalLoop=1;jettySize=auto;html=1;fontColor=#393C56;strokeColor=#E07A5F;fillColor=#F2CC8F;labelBackgroundColor=#F4F1DE;" parent="1" source="7" target="9" edge="1">
                    <mxGeometry relative="1" as="geometry"/>
                </mxCell>
                <mxCell id="7" value="for row in data:" style="strokeWidth=2;html=1;shape=mxgraph.flowchart.decision;whiteSpace=wrap;rounded=0;sketch=0;fontColor=#393C56;fillColor=#F2CC8F;strokeColor=#E07A5F;" parent="1" vertex="1">
                    <mxGeometry x="325" y="370" width="100" height="100" as="geometry"/>
                </mxCell>
                <mxCell id="12" value="" style="edgeStyle=orthogonalEdgeStyle;curved=0;rounded=1;sketch=0;orthogonalLoop=1;jettySize=auto;html=1;fontColor=#393C56;strokeColor=#E07A5F;fillColor=#F2CC8F;labelBackgroundColor=#F4F1DE;" parent="1" source="9" target="11" edge="1">
                    <mxGeometry relative="1" as="geometry"/>
                </mxCell>
                <mxCell id="9" value="col_count = 0" style="rounded=0;whiteSpace=wrap;html=1;sketch=0;fontColor=#393C56;strokeColor=#E07A5F;fillColor=#F2CC8F;" parent="1" vertex="1">
                    <mxGeometry x="315" y="510" width="120" height="60" as="geometry"/>
                </mxCell>
                <mxCell id="14" value="" style="edgeStyle=orthogonalEdgeStyle;curved=0;rounded=1;sketch=0;orthogonalLoop=1;jettySize=auto;html=1;fontColor=#393C56;strokeColor=#E07A5F;fillColor=#F2CC8F;labelBackgroundColor=#F4F1DE;" parent="1" source="11" target="13" edge="1">
                    <mxGeometry relative="1" as="geometry"/>
                </mxCell>
                <mxCell id="85" style="edgeStyle=orthogonalEdgeStyle;curved=0;rounded=1;sketch=0;orthogonalLoop=1;jettySize=auto;html=1;entryX=1;entryY=0.5;entryDx=0;entryDy=0;fontColor=#393C56;strokeColor=#E07A5F;fillColor=#F2CC8F;labelBackgroundColor=#F4F1DE;" parent="1" source="11" target="84" edge="1">
                    <mxGeometry relative="1" as="geometry"/>
                </mxCell>
                <mxCell id="11" value="for tile in row:" style="strokeWidth=2;html=1;shape=mxgraph.flowchart.decision;whiteSpace=wrap;rounded=0;sketch=0;fontColor=#393C56;fillColor=#F2CC8F;strokeColor=#E07A5F;" parent="1" vertex="1">
                    <mxGeometry x="325" y="610" width="100" height="100" as="geometry"/>
                </mxCell>
                <mxCell id="16" value="" style="edgeStyle=orthogonalEdgeStyle;curved=0;rounded=1;sketch=0;orthogonalLoop=1;jettySize=auto;html=1;fontColor=#393C56;strokeColor=#E07A5F;fillColor=#F2CC8F;labelBackgroundColor=#F4F1DE;" parent="1" source="13" target="15" edge="1">
                    <mxGeometry relative="1" as="geometry"/>
                </mxCell>
                <mxCell id="40" style="edgeStyle=orthogonalEdgeStyle;curved=0;rounded=1;sketch=0;orthogonalLoop=1;jettySize=auto;html=1;entryX=1;entryY=0.5;entryDx=0;entryDy=0;entryPerimeter=0;fontColor=#393C56;strokeColor=#E07A5F;fillColor=#F2CC8F;labelBackgroundColor=#F4F1DE;" parent="1" source="13" target="28" edge="1">
                    <mxGeometry relative="1" as="geometry"/>
                </mxCell>
                <mxCell id="13" value="if tile == 1 :" style="strokeWidth=2;html=1;shape=mxgraph.flowchart.decision;whiteSpace=wrap;rounded=0;sketch=0;fontColor=#393C56;fillColor=#F2CC8F;strokeColor=#E07A5F;" parent="1" vertex="1">
                    <mxGeometry x="325" y="750" width="100" height="100" as="geometry"/>
                </mxCell>
                <mxCell id="18" value="" style="edgeStyle=orthogonalEdgeStyle;curved=0;rounded=1;sketch=0;orthogonalLoop=1;jettySize=auto;html=1;fontColor=#393C56;strokeColor=#E07A5F;fillColor=#F2CC8F;labelBackgroundColor=#F4F1DE;" parent="1" source="15" target="17" edge="1">
                    <mxGeometry relative="1" as="geometry"/>
                </mxCell>
                <mxCell id="15" value="img = pygame. transform.scale(dirt, (tile_size, tile_size))" style="rounded=0;whiteSpace=wrap;html=1;sketch=0;fontColor=#393C56;strokeColor=#E07A5F;fillColor=#F2CC8F;" parent="1" vertex="1">
                    <mxGeometry x="315" y="890" width="120" height="60" as="geometry"/>
                </mxCell>
                <mxCell id="20" value="" style="edgeStyle=orthogonalEdgeStyle;curved=0;rounded=1;sketch=0;orthogonalLoop=1;jettySize=auto;html=1;fontColor=#393C56;strokeColor=#E07A5F;fillColor=#F2CC8F;labelBackgroundColor=#F4F1DE;" parent="1" source="17" target="19" edge="1">
                    <mxGeometry relative="1" as="geometry"/>
                </mxCell>
                <mxCell id="17" value="img_rect = img.get_rect()" style="rounded=0;whiteSpace=wrap;html=1;sketch=0;fontColor=#393C56;strokeColor=#E07A5F;fillColor=#F2CC8F;" parent="1" vertex="1">
                    <mxGeometry x="315" y="1000" width="120" height="60" as="geometry"/>
                </mxCell>
                <mxCell id="22" value="" style="edgeStyle=orthogonalEdgeStyle;curved=0;rounded=1;sketch=0;orthogonalLoop=1;jettySize=auto;html=1;fontColor=#393C56;strokeColor=#E07A5F;fillColor=#F2CC8F;labelBackgroundColor=#F4F1DE;" parent="1" source="19" target="21" edge="1">
                    <mxGeometry relative="1" as="geometry"/>
                </mxCell>
                <mxCell id="19" value="img_rect.x = col_count * tile_size" style="rounded=0;whiteSpace=wrap;html=1;sketch=0;fontColor=#393C56;strokeColor=#E07A5F;fillColor=#F2CC8F;" parent="1" vertex="1">
                    <mxGeometry x="315" y="1110" width="120" height="60" as="geometry"/>
                </mxCell>
                <mxCell id="24" value="" style="edgeStyle=orthogonalEdgeStyle;curved=0;rounded=1;sketch=0;orthogonalLoop=1;jettySize=auto;html=1;fontColor=#393C56;strokeColor=#E07A5F;fillColor=#F2CC8F;labelBackgroundColor=#F4F1DE;" parent="1" source="21" target="23" edge="1">
                    <mxGeometry relative="1" as="geometry"/>
                </mxCell>
                <mxCell id="21" value="img_rect.y = row_count * tile_size" style="rounded=0;whiteSpace=wrap;html=1;sketch=0;fontColor=#393C56;strokeColor=#E07A5F;fillColor=#F2CC8F;" parent="1" vertex="1">
                    <mxGeometry x="315" y="1220" width="120" height="60" as="geometry"/>
                </mxCell>
                <mxCell id="26" value="" style="edgeStyle=orthogonalEdgeStyle;curved=0;rounded=1;sketch=0;orthogonalLoop=1;jettySize=auto;html=1;fontColor=#393C56;strokeColor=#E07A5F;fillColor=#F2CC8F;labelBackgroundColor=#F4F1DE;" parent="1" source="23" target="25" edge="1">
                    <mxGeometry relative="1" as="geometry"/>
                </mxCell>
                <mxCell id="23" value="tile = (img, img_rect)" style="rounded=0;whiteSpace=wrap;html=1;sketch=0;fontColor=#393C56;strokeColor=#E07A5F;fillColor=#F2CC8F;" parent="1" vertex="1">
                    <mxGeometry x="315" y="1330" width="120" height="60" as="geometry"/>
                </mxCell>
                <mxCell id="77" style="edgeStyle=orthogonalEdgeStyle;curved=0;rounded=1;sketch=0;orthogonalLoop=1;jettySize=auto;html=1;entryX=1;entryY=0.5;entryDx=0;entryDy=0;entryPerimeter=0;fontColor=#393C56;strokeColor=#E07A5F;fillColor=#F2CC8F;labelBackgroundColor=#F4F1DE;" parent="1" source="25" target="61" edge="1">
                    <mxGeometry relative="1" as="geometry">
                        <Array as="points">
                            <mxPoint x="375" y="1575"/>
                        </Array>
                    </mxGeometry>
                </mxCell>
                <mxCell id="25" value="self.tile_list.append(tile)" style="rounded=0;whiteSpace=wrap;html=1;sketch=0;fontColor=#393C56;strokeColor=#E07A5F;fillColor=#F2CC8F;" parent="1" vertex="1">
                    <mxGeometry x="315" y="1440" width="120" height="60" as="geometry"/>
                </mxCell>
                <mxCell id="27" value="" style="edgeStyle=orthogonalEdgeStyle;curved=0;rounded=1;sketch=0;orthogonalLoop=1;jettySize=auto;html=1;fontColor=#393C56;strokeColor=#E07A5F;fillColor=#F2CC8F;labelBackgroundColor=#F4F1DE;" parent="1" source="28" target="30" edge="1">
                    <mxGeometry relative="1" as="geometry"/>
                </mxCell>
                <mxCell id="46" value="" style="edgeStyle=orthogonalEdgeStyle;curved=0;rounded=1;sketch=0;orthogonalLoop=1;jettySize=auto;html=1;fontColor=#393C56;strokeColor=#E07A5F;fillColor=#F2CC8F;labelBackgroundColor=#F4F1DE;" parent="1" source="28" target="42" edge="1">
                    <mxGeometry relative="1" as="geometry"/>
                </mxCell>
                <mxCell id="28" value="if tile == 2 :" style="strokeWidth=2;html=1;shape=mxgraph.flowchart.decision;whiteSpace=wrap;rounded=0;sketch=0;fontColor=#393C56;fillColor=#F2CC8F;strokeColor=#E07A5F;" parent="1" vertex="1">
                    <mxGeometry x="80" y="750" width="100" height="100" as="geometry"/>
                </mxCell>
                <mxCell id="29" value="" style="edgeStyle=orthogonalEdgeStyle;curved=0;rounded=1;sketch=0;orthogonalLoop=1;jettySize=auto;html=1;fontColor=#393C56;strokeColor=#E07A5F;fillColor=#F2CC8F;labelBackgroundColor=#F4F1DE;" parent="1" source="30" target="32" edge="1">
                    <mxGeometry relative="1" as="geometry"/>
                </mxCell>
                <mxCell id="30" value="img = pygame.&lt;br&gt;transform.scale(platform, (tile_size, tile_size))" style="rounded=0;whiteSpace=wrap;html=1;sketch=0;fontColor=#393C56;strokeColor=#E07A5F;fillColor=#F2CC8F;" parent="1" vertex="1">
                    <mxGeometry x="70" y="890" width="120" height="60" as="geometry"/>
                </mxCell>
                <mxCell id="31" value="" style="edgeStyle=orthogonalEdgeStyle;curved=0;rounded=1;sketch=0;orthogonalLoop=1;jettySize=auto;html=1;fontColor=#393C56;strokeColor=#E07A5F;fillColor=#F2CC8F;labelBackgroundColor=#F4F1DE;" parent="1" source="32" target="34" edge="1">
                    <mxGeometry relative="1" as="geometry"/>
                </mxCell>
                <mxCell id="32" value="img_rect = img.get_rect()" style="rounded=0;whiteSpace=wrap;html=1;sketch=0;fontColor=#393C56;strokeColor=#E07A5F;fillColor=#F2CC8F;" parent="1" vertex="1">
                    <mxGeometry x="70" y="1000" width="120" height="60" as="geometry"/>
                </mxCell>
                <mxCell id="33" value="" style="edgeStyle=orthogonalEdgeStyle;curved=0;rounded=1;sketch=0;orthogonalLoop=1;jettySize=auto;html=1;fontColor=#393C56;strokeColor=#E07A5F;fillColor=#F2CC8F;labelBackgroundColor=#F4F1DE;" parent="1" source="34" target="36" edge="1">
                    <mxGeometry relative="1" as="geometry"/>
                </mxCell>
                <mxCell id="34" value="img_rect.x = col_count * tile_size" style="rounded=0;whiteSpace=wrap;html=1;sketch=0;fontColor=#393C56;strokeColor=#E07A5F;fillColor=#F2CC8F;" parent="1" vertex="1">
                    <mxGeometry x="70" y="1110" width="120" height="60" as="geometry"/>
                </mxCell>
                <mxCell id="35" value="" style="edgeStyle=orthogonalEdgeStyle;curved=0;rounded=1;sketch=0;orthogonalLoop=1;jettySize=auto;html=1;fontColor=#393C56;strokeColor=#E07A5F;fillColor=#F2CC8F;labelBackgroundColor=#F4F1DE;" parent="1" source="36" target="38" edge="1">
                    <mxGeometry relative="1" as="geometry"/>
                </mxCell>
                <mxCell id="36" value="img_rect.y = row_count * tile_size" style="rounded=0;whiteSpace=wrap;html=1;sketch=0;fontColor=#393C56;strokeColor=#E07A5F;fillColor=#F2CC8F;" parent="1" vertex="1">
                    <mxGeometry x="70" y="1220" width="120" height="60" as="geometry"/>
                </mxCell>
                <mxCell id="37" value="" style="edgeStyle=orthogonalEdgeStyle;curved=0;rounded=1;sketch=0;orthogonalLoop=1;jettySize=auto;html=1;fontColor=#393C56;strokeColor=#E07A5F;fillColor=#F2CC8F;labelBackgroundColor=#F4F1DE;" parent="1" source="38" target="39" edge="1">
                    <mxGeometry relative="1" as="geometry"/>
                </mxCell>
                <mxCell id="38" value="tile = (img, img_rect)" style="rounded=0;whiteSpace=wrap;html=1;sketch=0;fontColor=#393C56;strokeColor=#E07A5F;fillColor=#F2CC8F;" parent="1" vertex="1">
                    <mxGeometry x="70" y="1330" width="120" height="60" as="geometry"/>
                </mxCell>
                <mxCell id="75" value="" style="edgeStyle=orthogonalEdgeStyle;curved=0;rounded=1;sketch=0;orthogonalLoop=1;jettySize=auto;html=1;fontColor=#393C56;strokeColor=#E07A5F;fillColor=#F2CC8F;labelBackgroundColor=#F4F1DE;" parent="1" source="39" target="61" edge="1">
                    <mxGeometry relative="1" as="geometry"/>
                </mxCell>
                <mxCell id="39" value="self.tile_list.append(tile)" style="rounded=0;whiteSpace=wrap;html=1;sketch=0;fontColor=#393C56;strokeColor=#E07A5F;fillColor=#F2CC8F;" parent="1" vertex="1">
                    <mxGeometry x="70" y="1440" width="120" height="60" as="geometry"/>
                </mxCell>
                <mxCell id="41" value="" style="edgeStyle=orthogonalEdgeStyle;curved=0;rounded=1;sketch=0;orthogonalLoop=1;jettySize=auto;html=1;fontColor=#393C56;strokeColor=#E07A5F;fillColor=#F2CC8F;labelBackgroundColor=#F4F1DE;" parent="1" source="42" target="44" edge="1">
                    <mxGeometry relative="1" as="geometry"/>
                </mxCell>
                <mxCell id="52" value="" style="edgeStyle=orthogonalEdgeStyle;curved=0;rounded=1;sketch=0;orthogonalLoop=1;jettySize=auto;html=1;fontColor=#393C56;strokeColor=#E07A5F;fillColor=#F2CC8F;labelBackgroundColor=#F4F1DE;" parent="1" source="42" target="48" edge="1">
                    <mxGeometry relative="1" as="geometry"/>
                </mxCell>
                <mxCell id="42" value="if tile == 3 :" style="strokeWidth=2;html=1;shape=mxgraph.flowchart.decision;whiteSpace=wrap;rounded=0;sketch=0;fontColor=#393C56;fillColor=#F2CC8F;strokeColor=#E07A5F;" parent="1" vertex="1">
                    <mxGeometry x="-100" y="750" width="100" height="100" as="geometry"/>
                </mxCell>
                <mxCell id="43" value="" style="edgeStyle=orthogonalEdgeStyle;curved=0;rounded=1;sketch=0;orthogonalLoop=1;jettySize=auto;html=1;fontColor=#393C56;strokeColor=#E07A5F;fillColor=#F2CC8F;labelBackgroundColor=#F4F1DE;" parent="1" source="44" target="45" edge="1">
                    <mxGeometry relative="1" as="geometry"/>
                </mxCell>
                <mxCell id="44" value="ghost = Enemy(col_count * tile_size, row_count * tile_size)" style="rounded=0;whiteSpace=wrap;html=1;sketch=0;fontColor=#393C56;strokeColor=#E07A5F;fillColor=#F2CC8F;" parent="1" vertex="1">
                    <mxGeometry x="-110" y="890" width="120" height="60" as="geometry"/>
                </mxCell>
                <mxCell id="73" style="edgeStyle=orthogonalEdgeStyle;curved=0;rounded=1;sketch=0;orthogonalLoop=1;jettySize=auto;html=1;entryX=0.5;entryY=0;entryDx=0;entryDy=0;entryPerimeter=0;fontColor=#393C56;strokeColor=#E07A5F;fillColor=#F2CC8F;labelBackgroundColor=#F4F1DE;" parent="1" source="45" target="68" edge="1">
                    <mxGeometry relative="1" as="geometry"/>
                </mxCell>
                <mxCell id="45" value="blob_group.add(ghost)" style="rounded=0;whiteSpace=wrap;html=1;sketch=0;fontColor=#393C56;strokeColor=#E07A5F;fillColor=#F2CC8F;" parent="1" vertex="1">
                    <mxGeometry x="-110" y="1000" width="120" height="60" as="geometry"/>
                </mxCell>
                <mxCell id="47" value="" style="edgeStyle=orthogonalEdgeStyle;curved=0;rounded=1;sketch=0;orthogonalLoop=1;jettySize=auto;html=1;fontColor=#393C56;strokeColor=#E07A5F;fillColor=#F2CC8F;labelBackgroundColor=#F4F1DE;" parent="1" source="48" target="50" edge="1">
                    <mxGeometry relative="1" as="geometry"/>
                </mxCell>
                <mxCell id="58" value="" style="edgeStyle=orthogonalEdgeStyle;curved=0;rounded=1;sketch=0;orthogonalLoop=1;jettySize=auto;html=1;fontColor=#393C56;strokeColor=#E07A5F;fillColor=#F2CC8F;labelBackgroundColor=#F4F1DE;" parent="1" source="48" target="54" edge="1">
                    <mxGeometry relative="1" as="geometry"/>
                </mxCell>
                <mxCell id="48" value="if tile == 4 :" style="strokeWidth=2;html=1;shape=mxgraph.flowchart.decision;whiteSpace=wrap;rounded=0;sketch=0;fontColor=#393C56;fillColor=#F2CC8F;strokeColor=#E07A5F;" parent="1" vertex="1">
                    <mxGeometry x="-290" y="750" width="100" height="100" as="geometry"/>
                </mxCell>
                <mxCell id="49" value="" style="edgeStyle=orthogonalEdgeStyle;curved=0;rounded=1;sketch=0;orthogonalLoop=1;jettySize=auto;html=1;fontColor=#393C56;strokeColor=#E07A5F;fillColor=#F2CC8F;labelBackgroundColor=#F4F1DE;" parent="1" source="50" target="51" edge="1">
                    <mxGeometry relative="1" as="geometry"/>
                </mxCell>
                <mxCell id="50" value="lava = Lava(col_count * tile_size, row_count * tile_size + (tile_size//2))" style="rounded=0;whiteSpace=wrap;html=1;sketch=0;fontColor=#393C56;strokeColor=#E07A5F;fillColor=#F2CC8F;" parent="1" vertex="1">
                    <mxGeometry x="-300" y="890" width="120" height="60" as="geometry"/>
                </mxCell>
                <mxCell id="72" style="edgeStyle=orthogonalEdgeStyle;curved=0;rounded=1;sketch=0;orthogonalLoop=1;jettySize=auto;html=1;entryX=0.5;entryY=0;entryDx=0;entryDy=0;entryPerimeter=0;fontColor=#393C56;strokeColor=#E07A5F;fillColor=#F2CC8F;labelBackgroundColor=#F4F1DE;" parent="1" source="51" target="65" edge="1">
                    <mxGeometry relative="1" as="geometry"/>
                </mxCell>
                <mxCell id="51" value="lava_group.add(lava)" style="rounded=0;whiteSpace=wrap;html=1;sketch=0;fontColor=#393C56;strokeColor=#E07A5F;fillColor=#F2CC8F;" parent="1" vertex="1">
                    <mxGeometry x="-300" y="1000" width="120" height="60" as="geometry"/>
                </mxCell>
                <mxCell id="53" value="" style="edgeStyle=orthogonalEdgeStyle;curved=0;rounded=1;sketch=0;orthogonalLoop=1;jettySize=auto;html=1;fontColor=#393C56;strokeColor=#E07A5F;fillColor=#F2CC8F;labelBackgroundColor=#F4F1DE;" parent="1" source="54" target="56" edge="1">
                    <mxGeometry relative="1" as="geometry"/>
                </mxCell>
                <mxCell id="102" style="edgeStyle=orthogonalEdgeStyle;rounded=0;orthogonalLoop=1;jettySize=auto;html=1;entryX=1;entryY=0.5;entryDx=0;entryDy=0;entryPerimeter=0;labelBackgroundColor=#F4F1DE;strokeColor=#E07A5F;fontColor=#393C56;" edge="1" parent="1" source="54" target="98">
                    <mxGeometry relative="1" as="geometry"/>
                </mxCell>
                <mxCell id="54" value="if tile == 5 :" style="strokeWidth=2;html=1;shape=mxgraph.flowchart.decision;whiteSpace=wrap;rounded=0;sketch=0;fontColor=#393C56;fillColor=#F2CC8F;strokeColor=#E07A5F;" parent="1" vertex="1">
                    <mxGeometry x="-475" y="750" width="100" height="100" as="geometry"/>
                </mxCell>
                <mxCell id="55" value="" style="edgeStyle=orthogonalEdgeStyle;curved=0;rounded=1;sketch=0;orthogonalLoop=1;jettySize=auto;html=1;fontColor=#393C56;strokeColor=#E07A5F;fillColor=#F2CC8F;labelBackgroundColor=#F4F1DE;" parent="1" source="56" target="57" edge="1">
                    <mxGeometry relative="1" as="geometry"/>
                </mxCell>
                <mxCell id="56" value="door = Door(col_count * tile_size, row_count * tile_size)" style="rounded=0;whiteSpace=wrap;html=1;sketch=0;fontColor=#393C56;strokeColor=#E07A5F;fillColor=#F2CC8F;" parent="1" vertex="1">
                    <mxGeometry x="-485" y="890" width="120" height="60" as="geometry"/>
                </mxCell>
                <mxCell id="71" style="edgeStyle=orthogonalEdgeStyle;curved=0;rounded=1;sketch=0;orthogonalLoop=1;jettySize=auto;html=1;entryX=0;entryY=0.5;entryDx=0;entryDy=0;entryPerimeter=0;fontColor=#393C56;strokeColor=#E07A5F;fillColor=#F2CC8F;labelBackgroundColor=#F4F1DE;" parent="1" source="57" target="65" edge="1">
                    <mxGeometry relative="1" as="geometry">
                        <Array as="points">
                            <mxPoint x="-425" y="1575"/>
                        </Array>
                    </mxGeometry>
                </mxCell>
                <mxCell id="57" value="door_group.add(door)" style="rounded=0;whiteSpace=wrap;html=1;sketch=0;fontColor=#393C56;strokeColor=#E07A5F;fillColor=#F2CC8F;" parent="1" vertex="1">
                    <mxGeometry x="-485" y="1000" width="120" height="60" as="geometry"/>
                </mxCell>
                <mxCell id="83" style="edgeStyle=orthogonalEdgeStyle;curved=0;rounded=1;sketch=0;orthogonalLoop=1;jettySize=auto;html=1;fontColor=#393C56;strokeColor=#E07A5F;fillColor=#F2CC8F;entryX=1;entryY=0.5;entryDx=0;entryDy=0;labelBackgroundColor=#F4F1DE;" parent="1" source="59" target="9" edge="1">
                    <mxGeometry relative="1" as="geometry">
                        <mxPoint x="490" y="530" as="targetPoint"/>
                        <Array as="points">
                            <mxPoint x="600" y="1770"/>
                            <mxPoint x="600" y="540"/>
                        </Array>
                    </mxGeometry>
                </mxCell>
                <mxCell id="59" value="col_count += 1" style="rounded=0;whiteSpace=wrap;html=1;sketch=0;fontColor=#393C56;strokeColor=#E07A5F;fillColor=#F2CC8F;" parent="1" vertex="1">
                    <mxGeometry x="-15" y="1740" width="120" height="60" as="geometry"/>
                </mxCell>
                <mxCell id="81" style="edgeStyle=orthogonalEdgeStyle;curved=0;rounded=1;sketch=0;orthogonalLoop=1;jettySize=auto;html=1;entryX=1;entryY=0.5;entryDx=0;entryDy=0;entryPerimeter=0;fontColor=#393C56;strokeColor=#E07A5F;fillColor=#F2CC8F;labelBackgroundColor=#F4F1DE;" parent="1" source="61" target="79" edge="1">
                    <mxGeometry relative="1" as="geometry"/>
                </mxCell>
                <mxCell id="61" value="" style="strokeWidth=2;html=1;shape=mxgraph.flowchart.start_2;whiteSpace=wrap;rounded=0;sketch=0;fontColor=#393C56;fillColor=#F2CC8F;strokeColor=#E07A5F;" parent="1" vertex="1">
                    <mxGeometry x="115" y="1560" width="30" height="30" as="geometry"/>
                </mxCell>
                <mxCell id="74" style="edgeStyle=orthogonalEdgeStyle;curved=0;rounded=1;sketch=0;orthogonalLoop=1;jettySize=auto;html=1;entryX=0;entryY=0.5;entryDx=0;entryDy=0;entryPerimeter=0;fontColor=#393C56;strokeColor=#E07A5F;fillColor=#F2CC8F;labelBackgroundColor=#F4F1DE;" parent="1" source="65" target="68" edge="1">
                    <mxGeometry relative="1" as="geometry"/>
                </mxCell>
                <mxCell id="65" value="" style="strokeWidth=2;html=1;shape=mxgraph.flowchart.start_2;whiteSpace=wrap;rounded=0;sketch=0;fontColor=#393C56;fillColor=#F2CC8F;strokeColor=#E07A5F;" parent="1" vertex="1">
                    <mxGeometry x="-255" y="1560" width="30" height="30" as="geometry"/>
                </mxCell>
                <mxCell id="80" style="edgeStyle=orthogonalEdgeStyle;curved=0;rounded=1;sketch=0;orthogonalLoop=1;jettySize=auto;html=1;entryX=0;entryY=0.5;entryDx=0;entryDy=0;entryPerimeter=0;fontColor=#393C56;strokeColor=#E07A5F;fillColor=#F2CC8F;labelBackgroundColor=#F4F1DE;" parent="1" source="68" target="79" edge="1">
                    <mxGeometry relative="1" as="geometry"/>
                </mxCell>
                <mxCell id="68" value="" style="strokeWidth=2;html=1;shape=mxgraph.flowchart.start_2;whiteSpace=wrap;rounded=0;sketch=0;fontColor=#393C56;fillColor=#F2CC8F;strokeColor=#E07A5F;" parent="1" vertex="1">
                    <mxGeometry x="-65" y="1560" width="30" height="30" as="geometry"/>
                </mxCell>
                <mxCell id="82" style="edgeStyle=orthogonalEdgeStyle;curved=0;rounded=1;sketch=0;orthogonalLoop=1;jettySize=auto;html=1;entryX=0.5;entryY=0;entryDx=0;entryDy=0;fontColor=#393C56;strokeColor=#E07A5F;fillColor=#F2CC8F;labelBackgroundColor=#F4F1DE;" parent="1" source="79" target="59" edge="1">
                    <mxGeometry relative="1" as="geometry"/>
                </mxCell>
                <mxCell id="79" value="" style="strokeWidth=2;html=1;shape=mxgraph.flowchart.start_2;whiteSpace=wrap;rounded=0;sketch=0;fontColor=#393C56;fillColor=#F2CC8F;strokeColor=#E07A5F;" parent="1" vertex="1">
                    <mxGeometry x="30" y="1560" width="30" height="30" as="geometry"/>
                </mxCell>
                <mxCell id="86" style="edgeStyle=orthogonalEdgeStyle;curved=0;rounded=1;sketch=0;orthogonalLoop=1;jettySize=auto;html=1;entryX=0;entryY=0.5;entryDx=0;entryDy=0;fontColor=#393C56;strokeColor=#E07A5F;fillColor=#F2CC8F;labelBackgroundColor=#F4F1DE;" parent="1" source="84" target="5" edge="1">
                    <mxGeometry relative="1" as="geometry">
                        <Array as="points">
                            <mxPoint x="140" y="290"/>
                        </Array>
                    </mxGeometry>
                </mxCell>
                <mxCell id="84" value="row_count&amp;nbsp; += 1" style="rounded=0;whiteSpace=wrap;html=1;sketch=0;fontColor=#393C56;strokeColor=#E07A5F;fillColor=#F2CC8F;" parent="1" vertex="1">
                    <mxGeometry x="80" y="630" width="120" height="60" as="geometry"/>
                </mxCell>
                <mxCell id="87" value="True" style="text;html=1;strokeColor=none;fillColor=none;align=center;verticalAlign=middle;whiteSpace=wrap;rounded=0;sketch=0;fontColor=#393C56;" parent="1" vertex="1">
                    <mxGeometry x="395" y="850" width="40" height="20" as="geometry"/>
                </mxCell>
                <mxCell id="88" value="False" style="text;html=1;strokeColor=none;fillColor=none;align=center;verticalAlign=middle;whiteSpace=wrap;rounded=0;sketch=0;fontColor=#393C56;" parent="1" vertex="1">
                    <mxGeometry x="260" y="770" width="40" height="20" as="geometry"/>
                </mxCell>
                <mxCell id="90" value="True" style="text;html=1;strokeColor=none;fillColor=none;align=center;verticalAlign=middle;whiteSpace=wrap;rounded=0;sketch=0;fontColor=#393C56;" parent="1" vertex="1">
                    <mxGeometry x="160" y="850" width="40" height="20" as="geometry"/>
                </mxCell>
                <mxCell id="91" value="True" style="text;html=1;strokeColor=none;fillColor=none;align=center;verticalAlign=middle;whiteSpace=wrap;rounded=0;sketch=0;fontColor=#393C56;" parent="1" vertex="1">
                    <mxGeometry x="-40" y="850" width="40" height="20" as="geometry"/>
                </mxCell>
                <mxCell id="92" value="True" style="text;html=1;strokeColor=none;fillColor=none;align=center;verticalAlign=middle;whiteSpace=wrap;rounded=0;sketch=0;fontColor=#393C56;" parent="1" vertex="1">
                    <mxGeometry x="-230" y="850" width="40" height="20" as="geometry"/>
                </mxCell>
                <mxCell id="94" value="True" style="text;html=1;strokeColor=none;fillColor=none;align=center;verticalAlign=middle;whiteSpace=wrap;rounded=0;sketch=0;fontColor=#393C56;" parent="1" vertex="1">
                    <mxGeometry x="-415" y="850" width="40" height="20" as="geometry"/>
                </mxCell>
                <mxCell id="95" value="False" style="text;html=1;strokeColor=none;fillColor=none;align=center;verticalAlign=middle;whiteSpace=wrap;rounded=0;sketch=0;fontColor=#393C56;" parent="1" vertex="1">
                    <mxGeometry x="40" y="770" width="40" height="20" as="geometry"/>
                </mxCell>
                <mxCell id="96" value="False" style="text;html=1;strokeColor=none;fillColor=none;align=center;verticalAlign=middle;whiteSpace=wrap;rounded=0;sketch=0;fontColor=#393C56;" parent="1" vertex="1">
                    <mxGeometry x="-140" y="760" width="40" height="20" as="geometry"/>
                </mxCell>
                <mxCell id="97" value="False" style="text;html=1;strokeColor=none;fillColor=none;align=center;verticalAlign=middle;whiteSpace=wrap;rounded=0;sketch=0;fontColor=#393C56;" parent="1" vertex="1">
                    <mxGeometry x="-340" y="760" width="40" height="20" as="geometry"/>
                </mxCell>
                <mxCell id="100" style="edgeStyle=orthogonalEdgeStyle;rounded=0;orthogonalLoop=1;jettySize=auto;html=1;entryX=1;entryY=0.5;entryDx=0;entryDy=0;entryPerimeter=0;labelBackgroundColor=#F4F1DE;strokeColor=#E07A5F;fontColor=#393C56;" edge="1" parent="1" source="98" target="99">
                    <mxGeometry relative="1" as="geometry"/>
                </mxCell>
                <mxCell id="101" style="edgeStyle=orthogonalEdgeStyle;rounded=0;orthogonalLoop=1;jettySize=auto;html=1;entryX=1;entryY=0.5;entryDx=0;entryDy=0;entryPerimeter=0;labelBackgroundColor=#F4F1DE;strokeColor=#E07A5F;fontColor=#393C56;" edge="1" parent="1" source="98" target="99">
                    <mxGeometry relative="1" as="geometry"/>
                </mxCell>
                <mxCell id="105" value="" style="edgeStyle=orthogonalEdgeStyle;curved=0;rounded=1;sketch=0;orthogonalLoop=1;jettySize=auto;html=1;fontColor=#393C56;strokeColor=#E07A5F;fillColor=#F2CC8F;" edge="1" parent="1" source="98" target="103">
                    <mxGeometry relative="1" as="geometry"/>
                </mxCell>
                <mxCell id="98" value="if tile == 6 :" style="strokeWidth=2;html=1;shape=mxgraph.flowchart.decision;whiteSpace=wrap;rounded=0;sketch=0;fontColor=#393C56;fillColor=#F2CC8F;strokeColor=#E07A5F;" vertex="1" parent="1">
                    <mxGeometry x="-700" y="750" width="100" height="100" as="geometry"/>
                </mxCell>
                <mxCell id="106" value="" style="edgeStyle=orthogonalEdgeStyle;curved=0;rounded=1;sketch=0;orthogonalLoop=1;jettySize=auto;html=1;fontColor=#393C56;strokeColor=#E07A5F;fillColor=#F2CC8F;" edge="1" parent="1" source="99" target="104">
                    <mxGeometry relative="1" as="geometry"/>
                </mxCell>
                <mxCell id="99" value="if tile == 7 :" style="strokeWidth=2;html=1;shape=mxgraph.flowchart.decision;whiteSpace=wrap;rounded=0;sketch=0;fontColor=#393C56;fillColor=#F2CC8F;strokeColor=#E07A5F;" vertex="1" parent="1">
                    <mxGeometry x="-890" y="750" width="100" height="100" as="geometry"/>
                </mxCell>
                <mxCell id="109" value="" style="edgeStyle=orthogonalEdgeStyle;curved=0;rounded=1;sketch=0;orthogonalLoop=1;jettySize=auto;html=1;fontColor=#393C56;strokeColor=#E07A5F;fillColor=#F2CC8F;" edge="1" parent="1" source="103" target="107">
                    <mxGeometry relative="1" as="geometry"/>
                </mxCell>
                <mxCell id="103" value="platform = Platform(col_count * tile_size, row_count * tile_size, 1, 0)" style="rounded=0;whiteSpace=wrap;html=1;sketch=0;fontColor=#393C56;strokeColor=#E07A5F;fillColor=#F2CC8F;" vertex="1" parent="1">
                    <mxGeometry x="-710" y="890" width="120" height="60" as="geometry"/>
                </mxCell>
                <mxCell id="110" value="" style="edgeStyle=orthogonalEdgeStyle;curved=0;rounded=1;sketch=0;orthogonalLoop=1;jettySize=auto;html=1;fontColor=#393C56;strokeColor=#E07A5F;fillColor=#F2CC8F;" edge="1" parent="1" source="104" target="108">
                    <mxGeometry relative="1" as="geometry"/>
                </mxCell>
                <mxCell id="104" value="&amp;nbsp;platform = Platform(col_count * tile_size, row_count * tile_size, 0, 1)" style="rounded=0;whiteSpace=wrap;html=1;sketch=0;fontColor=#393C56;strokeColor=#E07A5F;fillColor=#F2CC8F;" vertex="1" parent="1">
                    <mxGeometry x="-900" y="890" width="120" height="60" as="geometry"/>
                </mxCell>
                <mxCell id="107" value="platform_group.add&lt;br&gt;(platform)" style="rounded=0;whiteSpace=wrap;html=1;sketch=0;fontColor=#393C56;strokeColor=#E07A5F;fillColor=#F2CC8F;" vertex="1" parent="1">
                    <mxGeometry x="-710" y="1000" width="120" height="60" as="geometry"/>
                </mxCell>
                <mxCell id="108" value="platform_group.add&lt;br&gt;(platform)" style="rounded=0;whiteSpace=wrap;html=1;sketch=0;fontColor=#393C56;strokeColor=#E07A5F;fillColor=#F2CC8F;" vertex="1" parent="1">
                    <mxGeometry x="-900" y="1000" width="120" height="60" as="geometry"/>
                </mxCell>
            </root>
        </mxGraphModel>
    </diagram>
</mxfile>